<svg xmlns="http://www.w3.org/2000/svg" version="1.1" viewBox="-5.0 -10.0 110.0 135.0">
 <g>
  <path d="m53.18 61.531c-1.2188 0-2.4297-0.32812-3.5195-0.98828l-17.762-10.832v15.121c0 1.25 0.60937 2.4219 1.6406 3.1406 4.1797 2.9414 10.98 6.4414 19.641 6.4414h0.089843c8.6289-0.03125 15.391-3.5195 19.551-6.4414 1.0195-0.71875 1.6406-1.8906 1.6406-3.1406v-15.121l-17.762 10.828c-1.0898 0.66016-2.3008 0.99219-3.5195 0.99219z"/>
  <path d="m85.762 39.211-30.102-18.352c-0.76172-0.46875-1.6211-0.69922-2.4805-0.69922-0.85938 0-1.7109 0.23047-2.4805 0.69922l-30.098 18.352c-0.32031 0.19922-0.35937 0.51172-0.35937 0.64062 0 0.12891 0.03125 0.44141 0.35937 0.64063l2.6992 1.6484 27.488-3.0312c0.32031-1.0195 1.2617-1.7695 2.3906-1.7695 1.3906 0 2.5117 1.1289 2.5117 2.5117 0 1.3789-1.1289 2.5117-2.5117 2.5117-0.92969 0-1.7383-0.51172-2.1719-1.2695l-24.906 2.7344 24.609 15c1.5312 0.92969 3.4297 0.92969 4.9492 0l30.102-18.352c0.32031-0.19922 0.35938-0.51172 0.35938-0.64062 0-0.125-0.042969-0.4375-0.35938-0.625z"/>
  <path d="m25.84 52.488v-8.8398l-2-1.2188v10.051c-1.75 0.44922-3.0508 2.0195-3.0508 3.9102 0 1.8789 1.3008 3.4492 3.0391 3.9102-0.058594 0.55078-0.26953 1.2812-0.85156 1.9297-1.1094 1.2383-2.6992 1.1484-2.8711 1.1406-0.55078-0.039063-1.0312 0.37109-1.0703 0.92188-0.039062 0.55078 0.37109 1.0312 0.92188 1.0703 0.070313 0.011719 0.19141 0.011719 0.33984 0.011719 0.82812 0 2.7305-0.19141 4.1797-1.8086 1.0117-1.1211 1.3008-2.3789 1.3711-3.2695 1.75-0.44922 3.0508-2.0195 3.0508-3.9102-0.007813-1.875-1.3203-3.4453-3.0586-3.8984zm-1 1.8633c-0.78125 0-1.4492 0.44141-1.7891 1.0781 0.33984-0.64063 1.0078-1.0781 1.7891-1.0781zm-1.8008 3.0195c0.35156 0.64062 1.0195 1.0781 1.7891 1.0781-0.76953 0-1.4375-0.4375-1.7891-1.0781zm3.5898 0c0.16016-0.28906 0.26172-0.62109 0.26172-0.96875 0-0.35156-0.10156-0.67969-0.26172-0.96875 0.16016 0.28906 0.26172 0.62109 0.26172 0.96875s-0.10156 0.67578-0.26172 0.96875z"/>
 </g>
<text x="0.0" y="117.5" font-size="5.0" font-weight="bold" font-family="Arbeit Regular, Helvetica, Arial-Unicode, Arial, Sans-serif" fill="#000000">Created by Garoks</text><text x="0.0" y="122.5" font-size="5.0" font-weight="bold" font-family="Arbeit Regular, Helvetica, Arial-Unicode, Arial, Sans-serif" fill="#000000">from Noun Project</text></svg>