<svg xmlns="http://www.w3.org/2000/svg" xmlns:xlink="http://www.w3.org/1999/xlink" version="1.1" x="0px" y="0px" viewBox="0 0 60 75" enable-background="new 0 0 60 60" xml:space="preserve"><path d="M30.391,32.948v23.146l10.973-4.579l0.999-0.417l10.972-4.579V23.374L30.391,32.948z M36.067,53.513V41.781l5.297-2.209  v11.731L36.067,53.513z M47.66,48.675l-5.297,2.21V39.154l5.297-2.21V48.675z"/><path d="M6.414,46.765L29.392,56.1V32.951L6.414,23.616V46.765z M26.565,49.6l-5.373-2.183v-7.699l5.373,2.183  C26.565,41.901,26.565,49.6,26.565,49.6z M20.193,47.011l-5.12-2.08v-7.7l5.12,2.081V47.011z M9.241,34.863l4.832,1.963v7.7  l-4.832-1.964V34.863z"/><path d="M30.391,4.369c-6.437,0-11.656,5.219-11.656,11.656s5.219,11.656,11.656,11.656c6.438,0,11.656-5.219,11.656-11.656  S36.829,4.369,30.391,4.369z M37.707,18.099h-5.243v5.242h-4.145v-5.242h-5.243v-4.147h5.243V8.71h4.145v5.242h5.243V18.099z"/><path d="M43.132,19.248c-1.439,5.704-6.59,9.932-12.741,9.932c-6.231,0-11.438-4.337-12.797-10.153L7.287,22.892l22.603,9.182  l22.574-9.419L43.132,19.248z"/><text x="0" y="75" fill="#000000" font-size="5px" font-weight="bold" font-family="'Helvetica Neue', Helvetica, Arial-Unicode, Arial, Sans-serif">Created by AS Design</text><text x="0" y="80" fill="#000000" font-size="5px" font-weight="bold" font-family="'Helvetica Neue', Helvetica, Arial-Unicode, Arial, Sans-serif">from the Noun Project</text></svg>